# Blender v2.82 (sub 7) OBJ File: ''
# www.blender.org
mtllib box.mtl
o Cube
v 2.300107 2.300107 -2.747037
v 2.300107 -2.300107 -2.747037
v 2.747037 2.747037 2.747037
v 2.747037 -2.747037 2.747037
v -2.300107 2.300107 -2.747037
v -2.300107 -2.300107 -2.747037
v -2.747037 2.747037 2.747037
v -2.747037 -2.747037 2.747037
v 2.747037 -2.747037 -2.747037
v -2.747037 -2.747037 -2.747037
v 2.747037 2.747037 -2.747037
v -2.747037 2.747037 -2.747037
v 2.747037 -2.747037 -2.747037
v -2.747037 -2.747037 -2.747037
v 2.747037 2.747037 -2.747037
v -2.747037 2.747037 -2.747037
v 2.300107 2.300107 1.082442
v 2.300107 -2.300107 1.082442
v -2.300107 2.300107 1.082442
v -2.300107 -2.300107 1.082442
vt 0.875000 0.500000
vt 0.625000 0.750000
vt 0.625000 0.500000
vt 0.375000 1.000000
vt 0.375000 0.750000
vt 0.625000 0.000000
vt 0.375000 0.250000
vt 0.375000 0.000000
vt 0.375000 0.500000
vt 0.125000 0.750000
vt 0.125000 0.500000
vt 0.604663 0.479663
vt 0.604663 0.270337
vt 0.604663 0.270337
vt 0.375000 0.250000
vt 0.375000 0.500000
vt 0.375000 0.500000
vt 0.625000 0.250000
vt 0.625000 0.250000
vt 0.625000 0.250000
vt 0.625000 0.500000
vt 0.395337 0.479663
vt 0.395337 0.270337
vt 0.395337 0.479663
vt 0.395337 0.270337
vt 0.604663 0.479663
vt 0.875000 0.750000
vt 0.625000 1.000000
vt 0.375000 0.500000
vt 0.625000 0.250000
vn 0.0000 1.0000 0.0000
vn 0.0000 0.0000 1.0000
vn -1.0000 0.0000 0.0000
vn 0.0000 -1.0000 0.0000
vn 1.0000 0.0000 0.0000
vn 0.0000 0.0000 -1.0000
usemtl Material
s off
f 12/1/1 3/2/1 11/3/1
f 3/2/2 8/4/2 4/5/2
f 7/6/3 10/7/3 8/8/3
f 9/9/4 8/10/4 10/11/4
f 11/3/5 4/5/5 9/9/5
f 1/12/4 19/13/4 5/14/4
f 14/15/2 9/9/2 10/7/2
f 13/16/2 11/17/2 9/9/2
f 16/18/2 10/19/2 12/20/2
f 15/21/2 12/20/2 11/3/2
f 2/22/6 14/15/6 6/23/6
f 1/12/6 13/16/6 2/22/6
f 6/23/6 16/18/6 5/14/6
f 5/14/6 15/21/6 1/12/6
f 19/13/6 18/24/6 20/25/6
f 2/22/3 17/26/3 1/12/3
f 5/14/5 20/25/5 6/23/5
f 6/23/1 18/24/1 2/22/1
f 12/1/1 7/27/1 3/2/1
f 3/2/2 7/28/2 8/4/2
f 7/6/3 12/20/3 10/7/3
f 9/9/4 4/5/4 8/10/4
f 11/3/5 3/2/5 4/5/5
f 1/12/4 17/26/4 19/13/4
f 14/15/2 13/16/2 9/9/2
f 13/16/2 15/29/2 11/17/2
f 16/18/2 14/30/2 10/19/2
f 15/21/2 16/18/2 12/20/2
f 2/22/6 13/16/6 14/15/6
f 1/12/6 15/21/6 13/16/6
f 6/23/6 14/15/6 16/18/6
f 5/14/6 16/18/6 15/21/6
f 19/13/6 17/26/6 18/24/6
f 2/22/3 18/24/3 17/26/3
f 5/14/5 19/13/5 20/25/5
f 6/23/1 20/25/1 18/24/1
